<?xml version="1.0" encoding="UTF-8"?>
<svg width="172px" height="22px" viewBox="0 0 172 22" version="1.1" xmlns="http://www.w3.org/2000/svg" xmlns:xlink="http://www.w3.org/1999/xlink">
    <title>fiveguys-logo</title>
    <g id="Symbols" stroke="none" stroke-width="1" fill="none" fill-rule="evenodd">
        <g id="Recommended-Header---Desktop" transform="translate(-634.000000, -19.000000)" fill-rule="nonzero">
            <g id="fiveguys-logo" transform="translate(634.000000, 19.000000)">
                <g id="Group" fill="#D21033">
                    <path d="M0,21.2089799 L0,0.567844173 L16.0699901,0.567844173 L16.0699901,5.39451964 L6.75734566,5.39451964 L6.75734566,9.14229119 L14.1677121,9.14229119 L14.1677121,13.9689667 L6.75734566,13.9689667 L6.75734566,21.2089799 L0,21.2089799 Z M19.1647408,21.2089799 L19.1647408,0.567844173 L25.9220865,0.567844173 L25.9220865,21.2089799 L19.1647408,21.2089799 Z M28.7896996,0.567844173 L35.6038296,0.567844173 L39.2096401,14.3096732 L42.9574117,0.567844173 L49.7715418,0.567844173 L42.6450974,21.2089799 L35.8593595,21.2089799 L28.7896996,0.567844173 Z M52.6391548,21.2089799 L52.6391548,0.567844173 L69.4757346,0.567844173 L69.4757346,5.39451964 L59.3965005,5.39451964 L59.3965005,8.34730934 L67.9141631,8.34730934 L67.9141631,13.1739848 L59.3965005,13.1739848 L59.3965005,16.3823044 L69.8732255,16.3823044 L69.8732255,21.2089799 L52.6391548,21.2089799 L52.6391548,21.2089799 Z M102.666226,21.2657643 L98.2938263,21.2657643 L98.0382965,19.2215253 C97.7543744,19.5338396 97.4136679,19.8745461 97.0445692,20.1584681 C96.6754705,20.4707824 96.2211951,20.7263123 95.7385276,20.95345 C95.2274678,21.1805877 94.6596236,21.3793331 94.0066028,21.5212942 C93.353582,21.6632552 92.6437768,21.7484318 91.8204028,21.7484318 C90.5143612,21.7484318 89.2367118,21.5212942 88.044239,21.095411 C86.8517663,20.6695279 85.7728623,20.0165071 84.8359194,19.1363486 C83.8989766,18.2561902 83.1607791,17.148894 82.6213272,15.8144602 C82.0818752,14.4800264 81.7979531,12.9184549 81.7979531,11.1297458 C81.7979531,9.48299769 82.053483,7.97821063 82.5361505,6.61538462 C83.0472103,5.2525586 83.7570155,4.08847805 84.6939584,3.09475074 C85.6309013,2.12941565 86.7665896,1.36282602 88.1010234,0.823374051 C89.4354572,0.283922086 90.9402443,-5.0434694e-16 92.6153846,-5.0434694e-16 C93.8646418,-5.0434694e-16 95.0287224,0.170353252 96.1076263,0.482667547 C97.1865302,0.794981842 98.1802575,1.27764939 99.0320238,1.93067019 C99.88379,2.58369099 100.621987,3.37867283 101.189832,4.31561571 C101.786068,5.28095081 102.155167,6.38824695 102.382304,7.63750413 L95.9656652,7.63750413 C95.7101354,6.78573787 95.2842522,6.13271707 94.7164081,5.67844173 C94.1201717,5.2525586 93.3819742,5.02542093 92.5018158,5.02542093 C91.8204028,5.02542093 91.2525586,5.16738197 90.7698911,5.45130406 C90.2872235,5.73522615 89.8897326,6.16110928 89.5490261,6.67216903 C89.2367118,7.211621 88.9811819,7.83624959 88.8108287,8.57444701 C88.6404754,9.31264444 88.5552988,10.1360185 88.5552988,11.0445692 C88.5552988,11.7827666 88.6120832,12.4641796 88.7540442,13.1455926 C88.8960053,13.8270056 89.123143,14.423242 89.4354572,14.9343017 C89.7477715,15.4453615 90.2020469,15.8712446 90.7414988,16.1551667 C91.309343,16.467481 91.990756,16.6094421 92.8709145,16.6094421 C93.211621,16.6094421 93.5807197,16.5526576 93.9498184,16.4390888 C94.3189171,16.32552 94.6596236,16.1551667 95.0003301,15.9564213 C95.3126444,15.7576758 95.5965665,15.5021459 95.8520964,15.2182238 C96.0792341,14.9343017 96.2495873,14.5935952 96.3631562,14.2528887 L93.4103665,14.2528887 L93.4103665,9.8520964 L102.666226,9.8520964 L102.666226,21.2657643 Z M106.612743,0.567844173 L113.370089,0.567844173 L113.370089,12.9184549 C113.370089,13.4295147 113.398481,13.9121822 113.483658,14.3948498 C113.540442,14.8491251 113.710796,15.246616 113.937933,15.5873225 C114.165071,15.9280291 114.505777,16.2119511 114.903268,16.4106966 C115.329152,16.6094421 115.868603,16.7230109 116.578409,16.7230109 C117.203037,16.7230109 117.685705,16.6378343 118.111588,16.4390888 C118.509079,16.2687356 118.849785,16.0132057 119.076923,15.6724992 C119.332453,15.3317927 119.502806,14.9343017 119.587983,14.4800264 C119.673159,14.0257511 119.729944,13.5146913 119.729944,12.9468471 L119.729944,0.567844173 L126.48729,0.567844173 L126.48729,12.2370419 C126.48729,15.5305381 125.692308,17.9438759 124.102344,19.4770551 C122.51238,21.0102344 119.985474,21.7484318 116.578409,21.7484318 C114.960053,21.7484318 113.540442,21.5780786 112.319577,21.2657643 C111.098712,20.95345 110.048201,20.413998 109.196434,19.6474084 C108.344668,18.8808188 107.72004,17.9154837 107.265764,16.6946187 C106.839881,15.4737537 106.612743,13.9973589 106.612743,12.2086497 L106.612743,0.567844173 L106.612743,0.567844173 Z M143.011555,21.2089799 L136.254209,21.2089799 L136.254209,13.7134368 L128.559921,0.567844173 L136.14064,0.567844173 L139.689667,7.5523275 L143.238693,0.567844173 L150.705844,0.567844173 L143.011555,13.5998679 L143.011555,21.2089799 L143.011555,21.2089799 Z M163.567514,6.5586002 C163.51073,6.18950149 163.397161,5.9055794 163.226808,5.67844173 C163.056454,5.45130406 162.857709,5.28095081 162.602179,5.13898977 C162.119511,4.88345989 161.551667,4.76989105 160.841862,4.76989105 C160.103665,4.76989105 159.564213,4.88345989 159.195114,5.08220535 C158.854407,5.28095081 158.684054,5.5648729 158.684054,5.96236382 C158.684054,6.33146253 158.854407,6.67216903 159.195114,6.8993067 C159.53582,7.15483658 159.990096,7.38197425 160.529548,7.5523275 C161.097392,7.75107296 161.72202,7.92142621 162.431826,8.09177947 C163.141631,8.26213272 163.851436,8.43248597 164.618026,8.65962364 C165.356223,8.8583691 166.094421,9.11389898 166.804226,9.42621327 C167.514031,9.71013536 168.13866,10.1076263 168.706504,10.5619016 C169.274348,11.0445692 169.700231,11.5840211 170.040938,12.2654341 C170.381644,12.9184549 170.551997,13.7134368 170.551997,14.6503797 C170.551997,15.8428524 170.32486,16.8933641 169.842192,17.8019148 C169.359525,18.6820733 168.706504,19.4202707 167.854738,20.0165071 C167.002971,20.6127435 165.980852,21.0386266 164.788379,21.3225487 C163.595906,21.6064708 162.289865,21.776824 160.898646,21.776824 C159.53582,21.776824 158.314955,21.5780786 157.207659,21.2089799 C156.100363,20.8398811 155.135028,20.3288214 154.368438,19.7041928 C153.573457,19.0795642 152.948828,18.3413668 152.494553,17.5179927 C152.040277,16.6946187 151.81314,15.8144602 151.756355,14.8775173 L158.229779,14.8775173 C158.37174,15.6157148 158.740839,16.1551667 159.337075,16.5242654 C159.592605,16.6946187 159.904919,16.8365797 160.245626,16.9217564 C160.586332,17.006933 160.927039,17.0637174 161.239353,17.0637174 C162.091119,17.0637174 162.772532,16.9217564 163.283592,16.6662265 C163.794652,16.4106966 164.050182,16.0415979 164.050182,15.5305381 C164.050182,15.0194784 163.766259,14.6219875 163.170023,14.3380654 C162.573787,14.0541433 161.863982,13.7986134 160.983823,13.5998679 C160.103665,13.3727303 159.138329,13.1455926 158.11621,12.8900627 C157.09409,12.6345328 156.128755,12.2654341 155.248597,11.7827666 C154.368438,11.300099 153.630241,10.6754705 153.062397,9.8520964 C152.46616,9.05711456 152.182238,7.97821063 152.182238,6.67216903 C152.182238,5.5932651 152.409376,4.62793001 152.863651,3.77616375 C153.317927,2.9527897 153.942555,2.24298448 154.737537,1.70353252 C155.532519,1.16408055 156.469462,0.738197425 157.548366,0.482667547 C158.62727,0.198745461 159.819742,0.0567844173 161.125784,0.0567844173 C162.545395,0.0567844173 163.794652,0.227137669 164.845163,0.567844173 C165.895675,0.908550677 166.775834,1.39121822 167.485639,1.9590624 C168.195444,2.55529878 168.763288,3.23671179 169.160779,4.03169363 C169.55827,4.82667547 169.8138,5.67844173 169.927369,6.5586002 L163.567514,6.5586002 Z" id="Shape"></path>
                </g>
                <path d="M170.495213,3.74777154 C170.296467,3.74777154 170.097722,3.71937933 169.898977,3.63420271 C169.728623,3.54902608 169.55827,3.43545725 169.416309,3.32188841 C169.274348,3.17992737 169.160779,3.03796633 169.103995,2.83922086 C169.018818,2.66886761 168.990426,2.47012215 168.990426,2.24298448 C168.990426,2.04423902 169.018818,1.84549356 169.103995,1.6467481 C169.189171,1.47639485 169.30274,1.3060416 169.416309,1.16408055 C169.55827,1.02211951 169.700231,0.908550677 169.898977,0.851766259 C170.06933,0.766589634 170.268075,0.738197425 170.495213,0.738197425 C170.693958,0.738197425 170.892704,0.766589634 171.091449,0.851766259 C171.261803,0.936942885 171.432156,1.05051172 171.574117,1.16408055 C171.716078,1.3060416 171.829647,1.44800264 171.886431,1.6467481 C171.971608,1.81710135 172,2.01584681 172,2.24298448 C172,2.44172994 171.971608,2.6404754 171.886431,2.83922086 C171.801255,3.00957412 171.687686,3.17992737 171.574117,3.32188841 C171.432156,3.46384946 171.290195,3.57741829 171.091449,3.63420271 C170.892704,3.71937933 170.722351,3.74777154 170.495213,3.74777154 Z M170.495213,3.40706504 C170.665566,3.40706504 170.807527,3.37867283 170.949488,3.32188841 C171.091449,3.26510399 171.205018,3.17992737 171.290195,3.09475074 C171.375371,2.98118191 171.460548,2.86761307 171.517332,2.72565203 C171.574117,2.58369099 171.602509,2.44172994 171.602509,2.27137669 C171.602509,2.10102344 171.574117,1.9590624 171.517332,1.81710135 C171.460548,1.67514031 171.375371,1.56157148 171.290195,1.44800264 C171.205018,1.33443381 171.063057,1.27764939 170.949488,1.22086497 C170.807527,1.16408055 170.665566,1.13568835 170.495213,1.13568835 C170.32486,1.13568835 170.182899,1.16408055 170.040938,1.22086497 C169.898977,1.27764939 169.785408,1.36282602 169.700231,1.44800264 C169.615054,1.56157148 169.529878,1.67514031 169.473093,1.81710135 C169.416309,1.9590624 169.387917,2.10102344 169.387917,2.27137669 C169.387917,2.44172994 169.416309,2.58369099 169.473093,2.72565203 C169.529878,2.86761307 169.615054,2.98118191 169.700231,3.09475074 C169.785408,3.20831958 169.927369,3.26510399 170.040938,3.32188841 C170.182899,3.37867283 170.353252,3.40706504 170.495213,3.40706504 Z M171.261803,3.06635853 L170.864312,3.06635853 L170.495213,2.38494553 L170.211291,2.38494553 L170.211291,3.06635853 L169.870584,3.06635853 L169.870584,1.44800264 L170.665566,1.44800264 C170.892704,1.44800264 171.034665,1.47639485 171.148234,1.56157148 C171.261803,1.61835589 171.290195,1.76031694 171.290195,1.9590624 C171.290195,2.10102344 171.261803,2.21459227 171.176626,2.27137669 C171.091449,2.32816111 170.97788,2.38494553 170.835919,2.38494553 L171.261803,3.06635853 Z M170.665566,2.12941565 C170.750743,2.12941565 170.835919,2.12941565 170.892704,2.07263123 C170.949488,2.04423902 170.97788,1.98745461 170.97788,1.87388577 C170.97788,1.81710135 170.97788,1.78870914 170.949488,1.76031694 C170.921096,1.73192473 170.892704,1.70353252 170.864312,1.70353252 C170.835919,1.70353252 170.779135,1.67514031 170.750743,1.67514031 L170.268075,1.67514031 L170.268075,2.12941565 L170.665566,2.12941565 L170.665566,2.12941565 Z" id="Shape" fill="#CF0A2C"></path>
            </g>
        </g>
    </g>
</svg>